<?xml version="1.0" standalone="no"?>
<!DOCTYPE svg PUBLIC "-//W3C//DTD SVG 20010904//EN"
 "http://www.w3.org/TR/2001/REC-SVG-20010904/DTD/svg10.dtd">
<svg version="1.0" xmlns="http://www.w3.org/2000/svg"
 width="700.000000pt" height="700.000000pt" viewBox="0 0 700.000000 700.000000"
 preserveAspectRatio="xMidYMid meet">
<metadata>
Created by potrace 1.14, written by Peter Selinger 2001-2017
</metadata>
<g transform="translate(0.000000,700.000000) scale(0.100000,-0.100000)"
fill="#000000" stroke="none">
<path d="M3405 6994 c-155 -35 -240 -80 -341 -179 -127 -125 -187 -269 -186
-445 0 -41 5 -97 11 -124 7 -27 10 -50 9 -51 -2 -1 -41 -24 -88 -50 -47 -26
-105 -60 -130 -75 -25 -15 -169 -98 -320 -185 -151 -87 -355 -205 -453 -262
-98 -57 -181 -103 -184 -103 -4 0 -14 -6 -22 -14 -9 -7 -47 -31 -86 -51 -38
-21 -87 -49 -107 -62 -21 -13 -40 -23 -43 -23 -3 0 -24 17 -46 38 -122 112
-327 173 -501 148 -178 -26 -353 -143 -444 -298 -115 -198 -116 -435 -2 -638
51 -89 162 -192 260 -239 47 -23 92 -41 101 -41 9 0 20 -8 25 -17 11 -25 8
-1641 -4 -1652 -5 -5 -27 -14 -49 -21 -74 -23 -168 -83 -236 -150 -79 -80
-150 -214 -169 -320 -11 -59 -14 -172 -6 -210 1 -8 6 -33 11 -55 22 -110 113
-255 208 -332 199 -161 453 -189 682 -75 50 25 114 70 148 104 21 21 8 26 182
-75 66 -38 140 -81 165 -95 25 -14 185 -106 355 -205 171 -98 389 -224 485
-279 96 -55 187 -109 202 -119 15 -11 31 -19 36 -19 23 0 31 -26 21 -70 -27
-121 -7 -273 51 -395 130 -270 423 -407 714 -333 268 68 453 298 470 584 2 40
-18 186 -28 202 -6 10 48 43 459 279 143 83 305 176 360 208 55 32 147 85 205
118 58 33 169 97 248 143 79 46 146 84 151 84 4 0 25 -16 47 -37 57 -53 118
-89 209 -125 71 -28 93 -32 200 -34 108 -3 128 0 201 24 227 76 379 248 430
487 11 51 5 195 -11 255 -54 208 -214 383 -400 440 -22 7 -44 16 -49 21 -11
10 -13 1640 -2 1657 4 7 15 12 25 12 38 0 179 81 243 139 148 136 228 356 196
541 -14 83 -19 104 -40 154 -75 180 -230 314 -426 369 -78 22 -258 16 -342
-11 -73 -24 -172 -81 -225 -129 -20 -18 -37 -33 -39 -33 -4 0 -266 151 -866
498 -241 139 -281 162 -320 184 -62 35 -245 141 -249 144 -2 2 2 26 9 54 7 27
12 81 12 118 2 349 -268 624 -617 629 -44 1 -89 -1 -100 -3z m-343 -1075 c-2
-8 -79 -144 -171 -304 -367 -633 -499 -862 -523 -906 -45 -81 -53 -94 -64
-109 -6 -8 -26 -42 -44 -75 -17 -33 -35 -64 -40 -70 -4 -5 -19 -30 -32 -55
-14 -25 -51 -90 -83 -145 -65 -113 -378 -655 -523 -905 -52 -91 -147 -255
-210 -365 -64 -110 -132 -228 -151 -262 -20 -35 -40 -61 -46 -60 -7 3 -10 290
-10 836 l0 833 64 24 c132 50 246 145 317 267 34 58 73 163 79 215 8 59 6 170
-4 217 -5 28 -7 53 -3 57 8 7 353 208 358 208 2 0 32 17 66 38 35 21 88 52
118 69 52 29 343 197 495 286 39 23 88 51 110 63 22 12 94 53 160 92 117 69
144 79 137 51z m986 -35 c53 -31 117 -68 142 -82 48 -27 443 -255 525 -303 28
-16 190 -110 360 -208 241 -139 310 -183 308 -198 -1 -10 -5 -38 -8 -63 -27
-192 32 -381 160 -514 74 -78 137 -121 229 -157 l71 -28 0 -832 c0 -546 -3
-833 -10 -836 -5 -1 -35 41 -65 94 -76 134 -97 170 -180 313 -40 69 -84 145
-98 170 -13 25 -28 50 -32 55 -5 6 -19 30 -33 55 -23 43 -78 138 -97 170 -37
62 -296 511 -323 560 -17 30 -45 79 -64 108 -18 29 -33 55 -33 58 0 4 -117
206 -199 344 -11 19 -29 51 -40 70 -10 19 -92 161 -181 315 -90 154 -174 300
-188 325 -14 25 -99 172 -189 327 -145 251 -177 313 -157 313 3 0 49 -25 102
-56z m-527 -129 c52 2 106 8 122 14 25 10 29 8 52 -30 14 -22 35 -56 46 -77
11 -20 24 -44 29 -52 9 -13 34 -58 90 -155 25 -43 789 -1366 878 -1519 41 -72
82 -144 92 -160 9 -17 42 -75 73 -128 85 -146 157 -271 282 -488 62 -107 122
-211 134 -230 11 -19 24 -41 27 -49 4 -7 53 -93 109 -189 l103 -176 -39 -45
c-49 -55 -94 -133 -118 -203 l-18 -53 -1882 0 -1883 0 -17 50 c-27 74 -69 148
-117 203 -38 43 -41 51 -30 68 7 10 24 39 38 64 14 25 108 187 208 360 100
173 193 333 205 355 42 73 357 619 414 717 80 138 312 539 332 576 14 26 108
189 209 362 100 173 243 421 318 550 74 129 139 240 144 246 7 9 21 9 57 -1
26 -7 89 -11 142 -10z m1857 -3844 c6 -1 12 -11 12 -23 -1 -19 -26 -37 -138
-101 -75 -42 -148 -84 -162 -92 -35 -21 -507 -293 -550 -317 -19 -11 -155 -89
-301 -174 -147 -85 -270 -154 -275 -154 -5 0 -28 18 -51 40 -49 47 -165 112
-243 135 -77 23 -210 27 -295 9 -91 -19 -196 -69 -268 -128 l-58 -47 -112 64
c-62 36 -128 74 -147 85 -19 11 -75 43 -125 72 -49 29 -106 61 -125 72 -42 24
-506 292 -749 432 -96 56 -176 106 -178 113 -3 7 8 13 24 15 22 2 3690 1 3741
-1z"/>
</g>
</svg>
