<svg xmlns="http://www.w3.org/2000/svg" xmlns:xlink="http://www.w3.org/1999/xlink" xml:space="preserve" version="1.1" style="shape-rendering:geometricPrecision;text-rendering:geometricPrecision;image-rendering:optimizeQuality;" viewBox="0 0 333.33 416.66249999999997" x="0px" y="0px" fill="#e10098" clip-rule="evenodd"><defs></defs><g><path class="fil0" d="M78.79 68.57l143.56 0 0 -17.77 -136.2 0 -32.59 0 0 221.74 20.24 0 0 -198.98c0,-2.76 2.24,-5 5,-5zm30.73 81.19c-2.76,0 -5,-2.24 -5,-5 0,-2.76 2.24,-5 5,-5l144.54 0c2.76,0 5,2.24 5,5 0,2.76 -2.24,5 -5,5l-144.54 0zm0 100.69c-2.76,0 -5,-2.24 -5,-5 0,-2.76 2.24,-5 5,-5l103.26 0c2.76,0 5,2.24 5,5 0,2.76 -2.24,5 -5,5l-103.26 0zm0 -25.17c-2.76,0 -5,-2.24 -5,-5 0,-2.76 2.24,-5 5,-5l144.54 0c2.76,0 5,2.24 5,5 0,2.76 -2.24,5 -5,5l-144.54 0zm0 -25.17c-2.76,0 -5,-2.24 -5,-5 0,-2.76 2.24,-5 5,-5l144.54 0c2.76,0 5,2.24 5,5 0,2.76 -2.24,5 -5,5l-144.54 0zm0 -25.17c-2.76,0 -5,-2.24 -5,-5 0,-2.76 2.24,-5 5,-5l103.26 0c2.76,0 5,2.24 5,5 0,2.76 -2.24,5 -5,5l-103.26 0zm150.42 -90.37l0 -62.85 -168.8 0 0 19.1 136.2 0c2.76,0 5,2.24 5,5l0 22.77 9.54 0c1.65,0 2.33,0.54 3.51,1.44l14.54 14.54zm-13.06 1.09l0 25.83 25.83 0 -11.31 -11.31 -14.52 -14.52zm-10 30.83l0 -37.9 -9.54 0 -143.56 0 0 198.98 0 34.08 196 0 0 -190.16 -37.9 0c-2.76,0 -5,-2.24 -5,-5z"/></g></svg>