<svg xmlns="http://www.w3.org/2000/svg" data-name="Layer 2" viewBox="0 0 32 40" x="0px" y="0px" fill="#e10098"><title>camera</title><path d="M24,16.05a.5.5,0,0,0-.2-.51L18.88,12l.76-6a.49.49,0,0,0-.25-.49.5.5,0,0,0-.55,0L14,9.14,8.56,6.58A.51.51,0,0,0,8,6.66a.48.48,0,0,0-.14.53L9.75,12.9,5.64,17.27a.49.49,0,0,0-.1.54.49.49,0,0,0,.46.3h6l2.89,5.26a.5.5,0,0,0,.44.26h0a.51.51,0,0,0,.43-.35l1.84-5.71,5.9-1.13A.5.5,0,0,0,24,16.05Zm-6.78.58a.49.49,0,0,0-.38.34l-1.57,4.89-2.48-4.5a.51.51,0,0,0-.44-.26H7.16l3.52-3.75a.49.49,0,0,0,.11-.49L9.19,8l4.65,2.19a.5.5,0,0,0,.51-.05l4.15-3-.65,5.1a.52.52,0,0,0,.21.47l4.16,3Z"/><path d="M26.35,25.65l-6.5-6.5a.49.49,0,0,0-.7.7l6.5,6.5a.48.48,0,0,0,.7,0A.48.48,0,0,0,26.35,25.65Z"/><text x="0" y="47" fill="#000000" font-size="5px" font-weight="bold" font-family="'Helvetica Neue', Helvetica, Arial-Unicode, Arial, Sans-serif">Created by Ilham Fitrotul Hayat</text><text x="0" y="52" fill="#000000" font-size="5px" font-weight="bold" font-family="'Helvetica Neue', Helvetica, Arial-Unicode, Arial, Sans-serif">from the Noun Project</text></svg>